<mxfile host="app.diagrams.net" modified="2022-09-20T22:11:44.122Z" agent="5.0 (Windows NT 10.0; Win64; x64) AppleWebKit/537.36 (KHTML, like Gecko) Chrome/104.0.5112.102 Safari/537.36 OPR/90.0.4480.117" etag="NUSZqNleh04NTBNxvbaN" version="20.3.3" type="github">
  <diagram id="Qga4rORNXlE4AcYj0sql" name="Страница 1">
    <mxGraphModel dx="6278" dy="3107" grid="0" gridSize="10" guides="1" tooltips="1" connect="1" arrows="1" fold="1" page="0" pageScale="1" pageWidth="3300" pageHeight="4681" math="0" shadow="0">
      <root>
        <mxCell id="0" />
        <mxCell id="1" parent="0" />
        <mxCell id="ehXfmeS3qIU8Uwh9fK03-1" value="" style="ellipse;whiteSpace=wrap;html=1;aspect=fixed;fillColor=#007FFF;movable=0;resizable=0;rotatable=0;deletable=0;editable=0;connectable=0;fillStyle=dashed;strokeColor=none;" vertex="1" parent="1">
          <mxGeometry x="1264" y="-128" width="3070" height="3070" as="geometry" />
        </mxCell>
        <mxCell id="ehXfmeS3qIU8Uwh9fK03-2" value="&lt;font style=&quot;font-size: 70px;&quot;&gt;POST APOCALIPTIC WORLD&lt;/font&gt;" style="text;html=1;align=center;verticalAlign=middle;resizable=0;points=[];autosize=1;strokeColor=none;fillColor=none;movable=0;rotatable=0;deletable=0;editable=0;connectable=0;" vertex="1" parent="ehXfmeS3qIU8Uwh9fK03-1">
          <mxGeometry x="1107" y="1350" width="926" height="96" as="geometry" />
        </mxCell>
        <mxCell id="ehXfmeS3qIU8Uwh9fK03-3" value="" style="ellipse;whiteSpace=wrap;html=1;fillStyle=cross-hatch;fontSize=50;fillColor=#66B2FF;strokeColor=#003366;movable=0;resizable=0;rotatable=0;deletable=0;editable=0;connectable=0;" vertex="1" parent="ehXfmeS3qIU8Uwh9fK03-1">
          <mxGeometry x="194" y="414" width="1130" height="1128" as="geometry" />
        </mxCell>
        <mxCell id="ehXfmeS3qIU8Uwh9fK03-9" value="" style="ellipse;whiteSpace=wrap;html=1;fillStyle=cross-hatch;fontSize=50;fillColor=#66B2FF;strokeColor=#003366;movable=0;resizable=0;rotatable=0;deletable=0;editable=0;connectable=0;" vertex="1" parent="ehXfmeS3qIU8Uwh9fK03-1">
          <mxGeometry x="1341" y="104" width="1130" height="1128" as="geometry" />
        </mxCell>
        <mxCell id="ehXfmeS3qIU8Uwh9fK03-8" value="" style="ellipse;whiteSpace=wrap;html=1;fillStyle=cross-hatch;fontSize=50;fillColor=#66B2FF;strokeColor=#003366;movable=0;resizable=0;rotatable=0;deletable=0;editable=0;connectable=0;" vertex="1" parent="ehXfmeS3qIU8Uwh9fK03-1">
          <mxGeometry x="449" y="1495" width="1513" height="1510.32" as="geometry" />
        </mxCell>
        <mxCell id="ehXfmeS3qIU8Uwh9fK03-5" value="" style="ellipse;whiteSpace=wrap;html=1;fillStyle=cross-hatch;fontSize=50;fillColor=#66B2FF;strokeColor=#003366;movable=0;resizable=0;rotatable=0;deletable=0;editable=0;connectable=0;" vertex="1" parent="ehXfmeS3qIU8Uwh9fK03-1">
          <mxGeometry x="1884" y="1181" width="1130" height="1128" as="geometry" />
        </mxCell>
        <mxCell id="ehXfmeS3qIU8Uwh9fK03-10" value="&lt;font style=&quot;font-size: 50px;&quot;&gt;STANDART&lt;/font&gt;" style="text;html=1;align=center;verticalAlign=middle;resizable=0;points=[];autosize=1;strokeColor=none;fillColor=none;movable=0;rotatable=0;deletable=0;editable=0;connectable=0;" vertex="1" parent="ehXfmeS3qIU8Uwh9fK03-1">
          <mxGeometry x="623.5" y="942" width="272" height="72" as="geometry" />
        </mxCell>
        <mxCell id="ehXfmeS3qIU8Uwh9fK03-11" value="&lt;font style=&quot;font-size: 50px;&quot;&gt;GOLDEN CHEST&lt;/font&gt;" style="text;html=1;align=center;verticalAlign=middle;resizable=0;points=[];autosize=1;strokeColor=none;fillColor=none;movable=0;rotatable=0;deletable=0;editable=0;connectable=0;" vertex="1" parent="ehXfmeS3qIU8Uwh9fK03-1">
          <mxGeometry x="1007.5" y="2214.16" width="396" height="72" as="geometry" />
        </mxCell>
        <mxCell id="ehXfmeS3qIU8Uwh9fK03-12" value="&lt;font style=&quot;font-size: 50px;&quot;&gt;ENEMY&lt;/font&gt;" style="text;html=1;align=center;verticalAlign=middle;resizable=0;points=[];autosize=1;strokeColor=none;fillColor=none;movable=0;rotatable=0;deletable=0;editable=0;connectable=0;" vertex="1" parent="ehXfmeS3qIU8Uwh9fK03-1">
          <mxGeometry x="2356" y="1709" width="187" height="72" as="geometry" />
        </mxCell>
        <mxCell id="ehXfmeS3qIU8Uwh9fK03-13" value="&lt;font style=&quot;font-size: 50px;&quot;&gt;RARE&lt;/font&gt;" style="text;html=1;align=center;verticalAlign=middle;resizable=0;points=[];autosize=1;strokeColor=none;fillColor=none;movable=0;rotatable=0;deletable=0;editable=0;connectable=0;" vertex="1" parent="ehXfmeS3qIU8Uwh9fK03-1">
          <mxGeometry x="1833.5" y="632" width="145" height="72" as="geometry" />
        </mxCell>
      </root>
    </mxGraphModel>
  </diagram>
</mxfile>
